<svg version="1.1" xmlns="http://www.w3.org/2000/svg" style="display: block;" viewBox="0 0 2048 2048" width="1024" height="1024" preserveAspectRatio="none">
<defs>
	<linearGradient id="Gradient1" gradientUnits="userSpaceOnUse" x1="1707.65" y1="976.936" x2="1470.65" y2="444.508">
		<stop class="stop0" offset="0" stop-opacity="1" stop-color="rgb(101,95,218)"/>
		<stop class="stop1" offset="1" stop-opacity="1" stop-color="rgb(67,180,245)"/>
	</linearGradient>
	<linearGradient id="Gradient2" gradientUnits="userSpaceOnUse" x1="996.325" y1="1011.61" x2="1051.49" y2="208.047">
		<stop class="stop0" offset="0" stop-opacity="1" stop-color="rgb(74,142,227)"/>
		<stop class="stop1" offset="1" stop-opacity="1" stop-color="rgb(67,203,250)"/>
	</linearGradient>
	<linearGradient id="Gradient3" gradientUnits="userSpaceOnUse" x1="1071.73" y1="893.049" x2="1065.65" y2="703.187">
		<stop class="stop0" offset="0" stop-opacity="1" stop-color="rgb(74,174,244)"/>
		<stop class="stop1" offset="1" stop-opacity="1" stop-color="rgb(71,203,250)"/>
	</linearGradient>
	<linearGradient id="Gradient4" gradientUnits="userSpaceOnUse" x1="1088.19" y1="1284.55" x2="1038.56" y2="771.926">
		<stop class="stop0" offset="0" stop-opacity="1" stop-color="rgb(102,93,220)"/>
		<stop class="stop1" offset="1" stop-opacity="1" stop-color="rgb(65,189,247)"/>
	</linearGradient>
</defs>
<path transform="translate(0,0)" fill="url(#Gradient4)" d="M 969.719 899.41 C 971.531 890.689 970.961 872.669 970.947 863.223 L 970.756 786.716 C 970.703 764.128 967.068 738.849 982.371 720.105 C 1002.46 695.506 1038.86 703.844 1067.59 703.036 C 1083.65 702.584 1116.59 701.212 1131.03 704.36 C 1139.17 706.191 1146.7 710.091 1152.9 715.683 C 1160.11 722.129 1165.14 730.653 1167.31 740.08 C 1170.28 753.174 1168.9 776.884 1169.15 791.057 C 1169.75 825.011 1168.25 860.469 1169.42 894.323 L 1170.58 897.905 C 1178.4 902.572 1304.02 894.299 1324.84 902.548 C 1373.22 921.715 1350.91 970.583 1359.86 1004.55 C 1362.2 1013.43 1389.02 1062.73 1394.77 1074.17 C 1401.62 1047.57 1413.96 1015.77 1422.76 989.433 C 1427.06 976.556 1440.19 938.369 1446.54 927.889 C 1451.23 920.172 1457.62 913.623 1465.21 908.74 C 1478.55 900.265 1491.5 900.46 1507.24 902.674 C 1553.45 909.176 1558.88 1006.47 1594.2 1015.85 C 1612.16 1020.62 1669.52 1018.7 1690.73 1018.7 L 1809.75 1018.83 C 1831.28 1018.89 1863.4 1012.51 1875.68 1033.65 C 1888.1 1055.01 1872.39 1079.68 1848.29 1080.23 C 1834.72 1080.54 1821.43 1080.22 1807.96 1080.17 L 1740.58 1080.39 L 1649.6 1080.4 C 1626.48 1080.36 1597.33 1082.25 1575.54 1075.94 C 1543.02 1066.52 1528.84 1041.25 1516.03 1012.24 C 1509.54 997.524 1501.53 980.891 1493.98 966.17 C 1486.46 990.679 1475.66 1017.26 1467.35 1041.88 C 1458.83 1066.06 1450.64 1090.35 1440.56 1113.94 C 1426.03 1147.94 1373.8 1148.34 1353.43 1120.29 C 1344.41 1107.87 1340.75 1092.34 1330.14 1081.34 C 1314.93 1079.21 1181.19 1079.19 1173.69 1081.51 C 1171.02 1082.33 1170.53 1084.01 1169.97 1086.66 C 1167.65 1097.77 1168.99 1110.98 1169.01 1122.32 L 1169.19 1199.53 C 1169.26 1229.86 1174.63 1267.17 1137.57 1278.79 C 1132.21 1280.45 1126.67 1281.5 1121.07 1281.9 C 1101.21 1283.41 1080.33 1282.16 1060.37 1282.1 C 1045.58 1282.05 1029.66 1283.33 1015.02 1281.72 C 1008.02 1280.95 1001.06 1279.02 994.848 1275.66 C 985.976 1270.85 978.122 1262.66 974.67 1253.08 C 967.864 1234.19 970.987 1141.27 971.092 1115.49 C 971.128 1106.38 972.692 1093.76 969.922 1085.12 C 969.241 1083 968.808 1082.06 966.691 1081.15 C 961.753 1079.03 861.208 1079.54 847.811 1080.16 C 844.216 1080.32 840.354 1080.71 836.985 1082.03 C 833.222 1083.5 831.706 1087.1 830.378 1090.66 C 824.885 1105.39 822.756 1123.26 819.339 1138.7 C 811.275 1174.99 803.412 1211.33 795.75 1247.7 C 792.175 1264.83 789.254 1284.91 782.3 1300.76 C 769.61 1328.96 725.524 1324.56 716.707 1295.73 C 709.434 1271.95 706.83 1245.12 702.089 1220.53 C 688.195 1144.61 674.821 1068.6 661.967 992.503 C 657.859 966.745 653.605 941.01 649.205 915.3 C 647.425 904.735 646.157 890.791 643.098 880.754 C 641.711 887.793 641.011 895.331 639.407 902.088 C 634.676 924.248 629.817 946.379 624.83 968.482 C 614.284 1015.51 606.748 1052.55 556.146 1072.62 C 528.613 1083.53 497.901 1080.63 468.786 1080.57 L 384.827 1080.42 L 323.438 1080.45 C 306.651 1080.56 284.293 1082.66 269.003 1075.69 C 254.779 1069.2 248.707 1049.14 256.019 1035.09 C 259.637 1028.05 265.939 1022.76 273.502 1020.41 C 282.91 1017.59 311.787 1018.69 322.978 1018.69 L 438.99 1018.68 C 459.643 1018.67 515.319 1021.32 532.259 1015.6 C 539.797 1013.05 547.453 1008.4 551.989 1001.73 C 563.664 984.578 582.126 890.852 588.444 863.559 C 590.814 853.323 592.424 839.808 596.874 830.418 C 602.696 798.898 609.248 738.446 653.14 746.912 C 661.576 748.54 674.292 754.601 678.869 763.025 C 688.814 788.648 694.02 830.845 698.982 857.744 C 712.788 928.043 724.968 1005.83 736.876 1076.97 L 747.076 1138.16 C 748.519 1146.75 750.873 1163.3 753.233 1171.05 C 754.214 1156.29 758.122 1138.7 760.581 1123.85 C 766.567 1087.55 773.685 1051.43 779.464 1015.09 C 783.437 990.113 778.095 963.123 782.849 937.996 C 786.075 920.941 801.509 903.881 819.045 900.979 C 830.656 899.057 845.884 899.857 857.965 899.859 L 929.788 899.919 C 941 899.921 958.854 900.362 969.719 899.41 z"/>
<path transform="translate(0,0)" fill="url(#Gradient3)" d="M 969.719 899.41 C 971.531 890.689 970.961 872.669 970.947 863.223 L 970.756 786.716 C 970.703 764.128 967.068 738.849 982.371 720.105 C 1002.46 695.506 1038.86 703.844 1067.59 703.036 C 1083.65 702.584 1116.59 701.212 1131.03 704.36 C 1139.17 706.191 1146.7 710.091 1152.9 715.683 C 1160.11 722.129 1165.14 730.653 1167.31 740.08 C 1170.28 753.174 1168.9 776.884 1169.15 791.057 C 1169.75 825.011 1168.25 860.469 1169.42 894.323 L 1168.47 897.213 C 1167.13 894.378 1166.85 890.023 1166.36 887.68 C 1166.23 887.058 1156.79 885.143 1157.9 883.54 C 1158.21 883.091 1156.52 881.164 1156.23 880.792 C 1141.49 878.512 1127.48 874.583 1112.55 873.891 C 1101.63 873.385 1083.62 879.876 1073.67 879.081 C 1055.85 877.657 1049.78 878.964 1032.77 884.411 C 1029.76 885.373 1017.06 883.521 1013.37 883.913 C 1006.19 884.873 990.5 888.075 983.891 891.181 C 981.254 892.42 979.491 896.821 976.03 896.51 L 973.321 894.302 C 968.56 897.858 976.048 896.248 969.719 899.41 z"/>
<path transform="translate(0,0)" fill="rgb(69,181,241)" d="M 596.874 830.418 C 602.696 798.898 609.248 738.446 653.14 746.912 C 661.576 748.54 674.292 754.601 678.869 763.025 C 688.814 788.648 694.02 830.845 698.982 857.744 C 698.395 860.501 698.435 860.474 697.123 862.954 L 695.393 862.336 C 689.518 855.081 686.106 846.113 682.469 837.535 C 664.822 825.453 652.258 816.805 630.301 815.638 C 621.192 815.154 619.511 812.218 611.298 817.481 C 607.87 817.331 609.054 817.509 605.869 814.463 C 600.361 815.589 602.368 825.954 596.874 830.418 z"/>
<path transform="translate(0,0)" fill="rgb(69,181,241)" d="M 848.293 902.299 C 861.219 902.565 876.262 901.436 888.842 902.471 L 888.597 903.31 C 884.8 904.782 885.982 904.311 881.142 902.922 C 878.684 903.08 878.14 903.264 875.706 903.775 C 873.051 906.388 871.084 909.37 867.316 907.404 L 867.315 904.475 C 859.683 902.863 856.835 904.323 848.293 902.299 z"/>
<path transform="translate(0,0)" fill="rgb(69,181,241)" d="M 946.525 902.007 C 949.852 902.1 949.955 901.971 953.227 903.121 L 953.709 904.407 L 951.187 904.498 C 947.924 905.23 947.734 905.921 945.553 904.698 L 946.525 902.007 z"/>
<path transform="translate(0,0)" fill="url(#Gradient2)" d="M 460.901 977.889 L 460.436 614.525 L 460.383 486.392 C 460.37 462.108 459.775 435.507 461.093 411.611 C 464.524 357.192 487.769 311.537 528.43 275.836 C 594.734 217.62 666.131 224.018 747.19 224.117 L 923.759 224.153 L 1179.83 224.195 L 1262.81 224.191 C 1364.61 224.213 1373.9 230.78 1445.35 301.95 L 1525.17 381.895 L 1579.37 435.174 C 1589.1 444.713 1602.1 456.885 1610.75 466.867 L 1609.17 468.447 C 1606.56 467.942 1597.74 463.705 1596.71 463.849 C 1584.95 465.479 1576.17 470.318 1563.82 469.729 C 1556.71 469.39 1553.61 475.53 1545.54 470.389 C 1522.27 470.277 1506.47 480.1 1484.73 483.511 C 1480.95 484.105 1478.33 488.45 1474.64 488.155 C 1464.51 487.348 1410.74 494.641 1405.96 492.974 C 1402.88 488.823 1403.92 488.914 1399.84 487.302 C 1398.49 488.041 1390.56 492.82 1390.24 492.84 C 1378.7 493.585 1357.97 506.087 1347.48 505.927 L 1345.78 502.74 C 1341.44 501.893 1335.96 505.718 1334.09 509.484 C 1334.8 512.184 1335.29 512.359 1337.09 514.593 C 1336.65 521.409 1333.13 515.055 1334.56 526.929 C 1333.05 524.966 1332.38 523.859 1330.52 522.209 C 1310.34 490.778 1323.13 376.374 1319.79 335.644 C 1317.9 312.613 1311.85 292.157 1282.94 290.449 C 1256.5 288.886 1228.7 289.971 1202.14 289.986 L 1038.68 289.99 L 791.205 289.981 C 748.84 289.976 705.698 289.461 663.095 290.214 C 613.068 292.207 562.319 317.967 538.578 363.154 C 521.701 395.277 524.185 426.544 524.219 461.15 L 524.232 538.882 L 524.235 832.293 L 524.34 902.145 C 524.37 922.242 527.694 951.307 511.99 966.32 C 499.325 978.429 477.462 977.375 460.901 977.889 z"/>
<path transform="translate(0,0)" fill="rgb(100,106,220)" d="M 1705.3 1118.43 L 1717.99 1117.92 C 1716.3 1153.55 1717.58 1199.6 1717.57 1236.08 L 1717.48 1494.98 C 1717.31 1513.48 1715.71 1529.43 1711.88 1547.09 C 1692.04 1638.62 1603.9 1708.77 1510.03 1705.78 C 1489.71 1705.13 1468.27 1705.78 1447.92 1705.77 L 1276.39 1705.75 L 861.695 1705.74 C 794.743 1705.71 727.548 1705.86 660.744 1705.75 C 610.62 1705.68 554.319 1680.2 519.812 1644.11 C 494.899 1618.05 478.238 1590.68 468.716 1555.57 C 460.046 1523.59 461.696 1493.5 461.687 1460.79 L 461.698 1386.81 C 461.679 1327.09 460.709 1265.01 461.517 1205.48 C 461.038 1176.66 461.2 1147.39 461.143 1118.53 C 473.742 1118.74 490.34 1117.87 501.84 1122.57 C 527.662 1133.11 524.132 1160.83 524.021 1183.05 L 523.811 1237.96 L 523.847 1415.13 C 523.852 1445.15 523.081 1478.02 524.303 1507.72 C 525.818 1544.56 547.597 1580.68 575.481 1604.46 C 600.931 1626.05 632.063 1639.85 665.15 1644.21 C 682.827 1646.65 701.128 1645.96 719.01 1645.95 L 788.435 1645.98 L 1033.18 1645.96 L 1350.33 1645.95 L 1448.22 1645.99 C 1465.1 1646.02 1489.73 1646.73 1506.07 1645.39 C 1536.04 1642.7 1564.78 1632.17 1589.4 1614.87 C 1625.8 1589.81 1648.64 1554.22 1653.27 1510.11 C 1654.94 1494.12 1654.75 1476.63 1654.77 1460.53 L 1654.79 1385.05 L 1654.79 1206.77 C 1654.49 1159.41 1643.73 1122.14 1705.3 1118.43 z"/>
<path transform="translate(0,0)" fill="url(#Gradient1)" d="M 1330.52 522.209 C 1332.38 523.859 1333.05 524.966 1334.56 526.929 C 1333.13 515.055 1336.65 521.409 1337.09 514.593 C 1335.29 512.359 1334.8 512.184 1334.09 509.484 C 1335.96 505.718 1341.44 501.893 1345.78 502.74 L 1347.48 505.927 C 1357.97 506.087 1378.7 493.585 1390.24 492.84 C 1390.56 492.82 1398.49 488.041 1399.84 487.302 C 1403.92 488.914 1402.88 488.823 1405.96 492.974 C 1410.74 494.641 1464.51 487.348 1474.64 488.155 C 1478.33 488.45 1480.95 484.105 1484.73 483.511 C 1506.47 480.1 1522.27 470.277 1545.54 470.389 C 1553.61 475.53 1556.71 469.39 1563.82 469.729 C 1576.17 470.318 1584.95 465.479 1596.71 463.849 C 1597.74 463.705 1606.56 467.942 1609.17 468.447 L 1610.75 466.867 C 1632.88 487.314 1657.86 511.747 1678.34 533.317 C 1702.76 559.033 1717.1 601.982 1717.73 636.774 C 1718.17 674.749 1717.69 712.85 1717.67 750.85 L 1717.71 977.861 C 1696.1 975.601 1677.8 980.148 1661.76 960.412 C 1657.82 955.56 1655.36 946.551 1655.14 940.504 C 1654.28 917.099 1654.7 892.643 1654.73 869.186 L 1654.91 724.854 C 1654.94 673.599 1666.21 619.029 1596.45 612.694 C 1584.99 611.652 1573.61 611.989 1562.11 611.985 L 1496.13 612.231 C 1481.61 612.298 1463.08 612.895 1449.05 611.42 C 1410.99 607.648 1375.98 588.912 1351.74 559.332 C 1344.12 549.866 1333.72 534.091 1330.52 522.209 z"/>
<path transform="translate(0,0)" fill="rgb(100,106,220)" d="M 674.822 1409.4 C 682.547 1408.67 698.153 1409.1 706.322 1409.11 L 765.299 1409.21 L 950.382 1409.28 L 1294.5 1409.24 C 1355.95 1409.21 1417.41 1409.12 1478.86 1409.32 C 1494.46 1409.37 1508.57 1412.98 1513.06 1430.36 C 1515.01 1437.99 1513.73 1446.08 1509.51 1452.72 C 1503.83 1461.59 1497.89 1463.79 1488.45 1465.88 L 938.654 1465.99 L 757.573 1465.96 C 730.179 1465.93 698.234 1466.82 671.208 1465.65 C 642.055 1464.39 634.487 1412.96 674.822 1409.4 z"/>
<path transform="translate(0,0)" fill="rgb(69,181,241)" d="M 672.086 428.205 C 690.566 426.893 728.815 428.03 748.57 428.036 L 901.391 428.075 L 1068.24 428.023 C 1096.6 428.015 1125.57 427.756 1153.93 428.352 C 1161.81 428.517 1167.22 429.324 1173.41 434.289 C 1179.67 439.256 1183.69 446.513 1184.59 454.454 C 1186.69 474.296 1172 484.075 1154.24 485.661 C 1138.32 486.329 1111.9 485.085 1094.72 485.058 L 950.757 484.856 L 764.642 484.57 C 747.998 484.544 670.489 486.689 660.897 481.303 C 654.013 477.412 649.067 470.823 647.252 463.126 C 645.423 455.454 646.883 447.367 651.278 440.819 C 656.565 432.874 663.143 429.808 672.086 428.205 z"/>
<path transform="translate(0,0)" fill="rgb(69,181,241)" d="M 672.784 564.286 C 703.865 563.335 738.449 564.051 769.841 564.005 L 967.06 564.002 L 1086.88 563.984 C 1108.94 563.934 1131.72 563.574 1153.77 564.276 C 1162.15 564.542 1167.61 565.69 1174.2 571.224 C 1180.26 576.262 1183.97 583.593 1184.43 591.467 C 1184.87 599.099 1182.11 606.569 1176.83 612.092 C 1169.95 619.36 1163.44 620.14 1154.24 620.46 C 1147.04 622.141 1102.21 620.733 1092.8 620.734 L 964.661 620.744 L 775.549 620.671 C 743.45 620.651 711.021 620.808 678.914 620.354 C 671.126 620.243 665.363 619.909 658.913 615.609 C 652.552 611.296 648.226 604.575 646.934 597 C 643.869 579.505 655.964 566.701 672.784 564.286 z"/>
<path transform="translate(0,0)" fill="rgb(100,106,220)" d="M 1444.27 1248.04 C 1458.29 1247.87 1472.76 1247.38 1486.53 1248.02 C 1522.74 1249.69 1523.26 1304.27 1485.99 1305.53 C 1472.64 1305.98 1459.53 1306.19 1446.29 1306.2 L 1376.9 1306.29 L 1303.22 1306.38 C 1291.28 1306.38 1273.81 1307.09 1262.3 1305.66 C 1228.19 1301.41 1229.64 1247.77 1267.55 1248.04 L 1444.27 1248.04 z"/>
<path transform="translate(0,0)" fill="rgb(82,89,208)" d="M 1267.55 1248.04 L 1444.27 1248.04 C 1433.32 1254.1 1376.15 1250.41 1359.51 1250.91 C 1334.65 1251.67 1305.8 1251.25 1280.57 1250.81 C 1276.22 1250.74 1271.63 1249.49 1267.55 1248.04 z"/>
<path transform="translate(0,0)" fill="rgb(0,1,1)" fill-opacity="0.0117647" d="M 639.407 902.088 C 641.011 895.331 641.711 887.793 643.098 880.754 C 643.477 886.781 644.812 896.576 644.394 901.757 L 643.141 902.955 C 641.339 902.681 641.018 902.811 639.407 902.088 z"/>
</svg>
